ply
format ascii 1.0
element vertex 148
property float x
property float y
property float z
property float nx
property float ny
property float nz
element face 292
property list uchar int vertex_indices
end_header
-0.039885 -0.063737 -0.903199 -1.486226 1.717065 -5.310058 
0.374048 0.068807 -0.852323 0.9482166 2.861833 -5.32114 
0.13837 -0.083731 -1.090213 -0.467763 2.491685 -3.801473 
0.388494 -0.900514 0.377505 1.677688 -2.003262 5.439823 
0.596498 -0.795497 0.265971 1.975355 -1.751837 5.108929 
0.593465 -0.621776 0.380822 2.342643 -1.927268 5.454688 
0.006321 1.595975 -1.093685 -0.8192624 3.442643 -1.95111 
-0.183257 1.461637 -0.944494 -3.988454 2.262836 -2.430614 
-0.032163 1.577858 -0.733513 0.777866 2.524349 1.691033 
-0.41267 0.447034 -0.017571 1.682673 3.613894 4.347116 
-0.44975 0.126252 0.229563 -0.4488871 2.630101 5.534345 
-0.090386 0.426401 0.048158 -1.42846 4.956367 3.197545 
-0.239753 -0.382857 -0.806319 -2.378734 -1.685219 -5.0501 
-0.617655 0.034776 -0.939697 -0.9757518 0.6103892 -5.500421 
0.631131 -0.107383 -0.908732 2.163293 1.310792 -5.407099 
0.808588 -0.304386 -0.830572 3.547297 -0.3793673 -4.791674 
-1.231329 0.25447 0.150522 -2.698776 -3.588082 2.073077 
-1.309796 0.417394 0.198512 -3.92108 -0.7356669 2.249038 
-1.305765 0.317039 -0.25366 -5.032727 -2.332488 -0.4294043 
0.787971 -0.613672 -0.785938 3.476154 -1.95984 -4.073938 
1.057143 -0.540745 -0.386412 3.80262 -0.4487031 -4.420969 
0.8442 -0.835243 -0.487089 3.581667 -3.138493 -3.918907 
-0.549488 1.479361 -1.521109 -1.641056 1.649949 -4.294312 
-0.306771 1.221472 -1.550762 2.111296 -0.845544 -3.201342 
-0.600929 1.065066 -1.491045 -1.906104 -1.546709 -3.357901 
0.625332 -0.805251 -0.753133 3.053397 -2.623523 -4.422688 
0.466953 -0.434641 -0.971331 2.070548 -1.179588 -5.632135 
-0.574111 -0.6664 0.049688 -4.355443 -2.358349 2.585538 
-0.5084 -0.902754 -0.182094 -2.488937 1.211582 0.9380115 
-0.574974 -0.775433 0.16139 -3.226535 3.052385 2.68088 
0.183724 -0.742109 -0.934173 0.3060865 -3.512489 -4.318211 
-0.056067 -0.356403 -1.091921 -2.309139 -0.3672308 -3.892385 
-0.798715 -0.862614 -0.262925 -2.419655 2.967042 1.243527 
-0.765518 -1.024089 -0.130996 -1.651279 -1.266296 0.7763245 
-0.500287 -0.789693 -0.595618 -4.140503 1.155091 -4.162022 
0.024553 -0.783977 -0.8637 -1.078389 -1.159331 -5.678256 
-0.425134 -0.935976 -0.873753 -1.88044 -0.02407742 -2.497217 
-0.6369 0.776977 -0.698359 3.331176 -0.3382687 -4.714558 
-0.518266 0.80154 -0.624189 3.215739 -0.7828542 -4.444416 
-0.477562 0.522232 -0.707348 1.338059 2.99709 -4.802795 
1.274538 -0.377966 -0.207356 2.220394 2.532332 -0.8556311 
1.250461 -0.524298 0.102875 2.347141 0.7524795 2.669971 
1.304757 -0.583576 -0.181661 5.160493 -0.9606318 -0.6575009 
-0.357852 1.597917 -1.448259 1.066817 2.264966 -0.533998 
-0.672929 0.865137 -0.925446 4.460358 -4.10586 -0.02129836 
-0.636907 1.027301 -0.796762 5.614375 0.6573804 1.375971 
-1.338347 0.50297 -0.274077 -5.473876 0.2264826 -0.5789937 
-1.170321 0.381132 -0.607994 -3.607449 -1.157234 -3.673927 
-0.500178 1.040462 -0.35085 3.586756 2.194935 4.161738 
-0.201472 1.21348 -0.506006 2.81032 0.5949963 4.746709 
-0.581962 1.117304 -0.371827 0.1738057 4.493451 3.723599 
-0.268514 -0.975896 0.45981 -1.076257 -1.078687 2.734931 
0.014521 -0.776321 0.403433 -0.5998662 -1.233416 5.866854 
-0.31805 -0.730756 0.286184 -3.432518 0.5084786 5.058307 
-0.04782 1.158794 -0.949534 -1.717311 -3.334279 -4.712688 
0.134562 1.130206 -0.931133 2.694067 -2.536506 -1.042125 
0.69338 0.411766 -0.736474 1.615627 2.620769 -3.828787 
0.913855 0.107565 -0.677999 3.743656 1.719561 -4.507574 
0.658942 0.163457 -0.768695 1.480975 1.730227 -5.798496 
1.131859 -0.173837 0.049084 5.17965 0.1288425 2.127367 
0.816939 -0.734759 0.264906 2.612708 -1.263624 5.286915 
1.08481 -0.410403 0.054297 3.82316 1.213243 4.125129 
0.179359 1.555521 -1.019585 2.974123 1.973446 -0.1019696 
0.110118 1.433038 -1.194988 1.832446 0.1371846 -3.18036 
0.593866 0.078284 0.419503 1.875802 2.132722 5.394026 
1.001996 0.106723 0.184673 4.275942 1.539696 3.330064 
0.771727 0.31882 0.24792 2.462866 2.986698 4.504732 
1.106953 0.194809 -0.391718 4.815161 2.050712 -1.111903 
1.138794 -0.375492 -0.218737 4.061797 2.708622 -1.588534 
-1.255766 -0.017236 -0.220643 -5.161243 -0.1268599 0.3158035 
-1.136178 -0.144061 0.02431 -4.547279 -0.9239824 3.079028 
-1.128244 0.196196 -0.022015 -4.014426 -2.840309 2.149447 
0.437411 0.686966 -0.183102 0.1242187 5.464809 0.2807242 
0.804521 0.545762 -0.297407 3.161685 4.771779 -0.6030802 
0.48737 0.613234 -0.482772 0.5243789 5.314849 -2.328163 
-1.147477 -0.265832 -0.474809 -4.724811 -1.964058 -1.802246 
-0.928783 -0.569858 -0.077087 -3.062577 -4.203946 1.211095 
-1.001445 -0.39149 0.067056 -3.77149 -2.648626 3.043158 
-0.432043 0.841382 -0.458382 5.45772 -0.9484942 0.8821526 
-0.341669 0.595499 -0.356067 3.506138 4.624513 0.4566962 
-0.927822 0.872241 -0.724068 -4.63066 -0.8755247 -3.874197 
-0.641945 0.904042 -1.334692 -0.8883802 -3.001214 -1.729256 
-1.17879 0.181116 -0.392667 -5.480883 -1.191065 -2.154815 
-0.887884 0.280879 -0.718132 -2.6009 0.7540249 -5.4297 
-0.954619 -0.054888 -0.799263 -3.563882 -0.135686 -4.19504 
-0.817049 0.75296 -0.750448 -1.04111 -2.404136 -5.045482 
-0.708384 1.541639 -1.351997 -1.662267 3.048658 -0.3572173 
-0.817469 1.054886 -0.526369 -1.695585 5.71273 -0.132218 
-0.517726 1.295065 -0.568063 -2.949326 3.928407 0.381988 
-0.857152 1.138997 -0.249347 -0.5041755 5.39978 0.3277315 
-0.598237 1.063295 -0.651867 -1.274809 2.40297 -4.602417 
-1.282216 0.959056 -0.301453 -3.5973 1.958711 -0.6238393 
-1.099456 1.008596 -0.032598 -2.348397 4.693042 2.298465 
-1.243704 0.736197 0.152806 -4.261171 2.282582 2.417525 
-1.227165 0.758176 -0.414343 -5.407979 0.8084017 -2.640377 
1.058946 -0.139433 -0.616322 4.689309 -0.08793618 -3.120448 
-0.665603 1.01184 0.028389 2.341467 2.43752 2.721674 
-0.919897 0.878165 0.223107 0.6162164 2.905455 4.018957 
-0.938999 -0.541756 -0.48272 -3.031718 -4.101906 -1.726333 
-0.355981 -0.44601 0.304856 -2.974678 -0.8289726 5.309365 
-0.536661 -1.023575 -0.577334 -1.873334 -3.976616 -2.17613 
0.586039 -1.021694 -0.763461 1.811913 -2.006159 -1.735187 
0.588272 -1.021098 -0.439418 1.274877 -5.696098 -1.105788 
-0.206876 -1.022671 -0.899367 -0.2233169 -2.472401 -2.976594 
0.416108 0.608474 0.123487 0.1302092 4.703259 2.557456 
0.285831 0.420577 0.314144 -0.6639042 3.531374 4.365099 
-0.912091 -1.021108 0.110594 -1.047126 -0.2740631 0.05795871 
-0.863429 1.377091 -1.253967 -3.481649 0.7408541 -1.084477 
0.043812 0.303492 -0.851055 0.535541 2.905056 -4.915001 
-0.601829 -0.625245 -0.550493 -3.039276 -3.89416 -3.182273 
-0.869531 0.199626 0.155436 -0.6031802 -1.084271 5.166802 
-0.795744 -0.06094 0.297608 -1.687407 0.6596442 5.090958 
1.063847 -1.023429 -0.03074 2.756238 -3.785422 0.6568866 
0.889993 -1.022086 0.183864 1.433472 -3.102636 2.717751 
-0.887189 -0.965988 -0.481301 -1.446725 -0.2009913 -0.724101 
0.901988 0.425 0.037765 3.647314 3.727611 1.930593 
0.289794 -0.407931 0.566819 1.002929 -0.7830047 5.839975 
0.782914 -0.238687 0.388124 3.218766 -0.1812555 5.079602 
0.448554 -0.126492 0.531094 1.60317 0.8081802 5.755706 
-0.076625 -0.129018 0.526464 -2.479656 1.407722 4.701305 
0.00788 -0.489702 0.56386 -1.402976 -1.129719 5.31586 
0.211203 -0.022698 0.539354 -0.1026324 1.866354 5.676573 
-0.039642 0.526934 -0.479442 0.04202434 5.901396 -1.397 
-0.982097 0.996339 -0.655861 -4.405234 2.689207 -1.581975 
-0.720819 -0.956087 0.278626 -1.157188 -0.06750047 2.785258 
-0.858144 1.15683 -1.023809 -5.467504 -0.4982109 -1.729682 
-1.108396 0.580192 0.358476 -1.684461 0.8261435 4.65049 
-0.278025 1.136083 -1.390223 3.99632 -2.61543 -0.3246884 
-0.329641 0.373716 -0.827138 -0.1987546 3.101182 -5.230121 
0.311594 0.405313 -0.729661 0.1250304 4.002094 -4.545709 
-0.235114 1.395339 -1.333972 3.651699 1.287655 1.060176 
-0.624415 0.809466 -0.030327 4.504166 1.41896 4.021626 
-0.896578 0.382742 0.383658 1.041858 -1.201082 3.633885 
-0.717662 0.436538 0.18767 3.936844 -0.5429977 4.462276 
0.968354 -1.023088 -0.309213 2.035388 -3.810996 -2.102163 
-0.178677 0.018298 0.326966 -2.68571 2.576106 4.899776 
-0.789205 -0.274253 0.255634 -2.315003 -1.981053 5.11191 
0.253612 -0.354654 -1.101814 1.191458 -1.501126 -4.123087 
1.200729 -0.620622 -0.370409 2.653187 -0.488905 -3.73782 
-0.019985 1.380327 -1.193953 -1.511366 -0.8056584 -3.457166 
0.381631 -1.022667 0.34076 0.7704249 -3.509501 2.971876 
-0.702686 -0.359397 -0.854537 -1.360186 -2.5865 -4.448009 
-0.443949 -1.022708 0.243014 -1.134953 -3.444007 2.656863 
-0.597416 -0.813907 -0.278983 -4.53843 2.34945 1.368564 
-0.674418 1.14737 -1.284754 -5.136704 -0.8062964 -3.03056 
-0.49503 1.32909 -1.153677 1.838666 4.413717 4.038975 
-0.807025 1.300238 -0.950048 -2.088719 3.872909 1.973104 
0.114195 1.175788 -0.808162 4.353983 -1.105223 2.711905 
3 0 1 2 
3 3 4 5 
3 6 7 8 
3 9 10 11 
3 0 12 13 
3 14 15 2 
3 16 17 18 
3 19 20 21 
3 22 23 24 
3 25 26 19 
3 27 28 29 
3 26 30 31 
3 32 33 28 
3 34 35 36 
3 37 38 39 
3 40 41 42 
3 43 23 22 
3 37 44 45 
3 46 47 18 
3 48 49 50 
3 51 52 53 
3 54 55 38 
3 56 57 58 
3 59 60 61 
3 62 55 63 
3 61 41 40 
3 64 65 66 
3 67 59 68 
3 69 70 71 
3 72 73 74 
3 75 76 77 
3 56 67 57 
3 78 79 38 
3 80 24 81 
3 82 47 83 
3 13 84 83 
3 44 37 85 
3 86 43 22 
3 87 50 88 
3 89 50 87 
3 45 87 90 
3 91 92 89 
3 46 93 94 
3 67 68 95 
3 96 92 97 
3 19 21 25 
3 75 84 98 
3 39 13 83 
3 99 27 53 
3 100 34 36 
3 101 102 103 
3 82 75 69 
3 74 73 56 
3 97 92 93 
3 104 72 11 
3 90 37 45 
3 105 66 104 
3 103 102 106 
3 22 107 86 
3 108 1 0 
3 12 35 109 
3 110 70 111 
3 90 54 38 
3 112 41 113 
3 67 56 73 
3 58 57 14 
3 114 100 33 
3 103 36 35 
3 101 25 102 
3 105 104 11 
3 67 73 115 
3 116 117 118 
3 119 120 121 
3 2 31 0 
3 82 84 75 
3 35 31 30 
3 122 72 74 
3 69 71 82 
3 31 35 12 
3 6 62 63 
3 36 103 100 
3 123 94 91 
3 124 29 106 
3 125 80 123 
3 17 93 18 
3 110 10 9 
3 50 8 88 
3 93 126 97 
3 14 2 1 
3 85 37 39 
3 33 32 114 
3 45 44 127 
3 39 128 13 
3 106 28 33 
3 129 122 74 
3 127 130 45 
3 131 132 133 
3 78 9 79 
3 123 80 94 
3 131 9 48 
3 120 3 116 
3 47 82 18 
3 67 95 57 
3 113 106 134 
3 102 21 134 
3 65 117 59 
3 10 110 111 
3 13 108 0 
3 11 135 105 
3 136 27 99 
3 7 54 90 
3 137 31 2 
3 23 81 24 
3 43 130 23 
3 123 91 87 
3 40 138 20 
3 88 7 90 
3 64 66 121 
3 93 17 126 
3 5 60 117 
3 131 133 9 
3 66 105 121 
3 55 54 139 
3 108 122 129 
3 105 135 119 
3 33 103 106 
3 80 47 94 
3 136 111 77 
3 48 9 78 
3 61 40 68 
3 40 42 138 
3 135 99 119 
3 122 108 39 
3 140 106 113 
3 141 12 109 
3 99 135 10 
3 100 114 34 
3 113 41 61 
3 137 26 31 
3 7 88 8 
3 62 6 8 
3 85 83 80 
3 16 132 126 
3 6 63 139 
3 120 119 99 
3 131 97 132 
3 88 90 87 
3 95 68 20 
3 49 8 50 
3 20 68 40 
3 25 101 35 
3 142 53 29 
3 41 112 42 
3 27 143 28 
3 72 122 11 
3 51 142 140 
3 102 134 106 
3 91 94 93 
3 0 31 12 
3 107 22 144 
3 91 89 87 
3 10 135 11 
3 108 58 1 
3 145 43 86 
3 140 3 52 
3 53 27 29 
3 114 32 143 
3 97 131 96 
3 15 19 26 
3 121 116 118 
3 105 119 121 
3 56 58 129 
3 141 98 84 
3 51 140 52 
3 131 48 96 
3 107 144 125 
3 100 103 33 
3 115 66 65 
3 136 99 111 
3 109 34 143 
3 4 140 113 
3 34 109 35 
3 5 4 60 
3 39 79 122 
3 115 72 104 
3 29 124 142 
3 15 14 57 
3 69 77 70 
3 110 9 133 
3 72 115 73 
3 85 39 83 
3 59 61 68 
3 71 70 110 
3 13 141 84 
3 130 127 23 
3 99 10 111 
3 20 15 95 
3 81 85 80 
3 75 98 76 
3 69 75 77 
3 145 130 43 
3 48 89 96 
3 44 85 81 
3 20 19 15 
3 144 24 80 
3 115 65 67 
3 28 106 29 
3 30 25 35 
3 66 115 104 
3 110 133 132 
3 83 84 82 
3 98 141 109 
3 139 63 55 
3 49 62 8 
3 146 125 123 
3 138 134 20 
3 77 76 27 
3 53 142 51 
3 113 61 60 
3 48 78 49 
3 107 125 146 
3 55 78 38 
3 112 113 134 
3 121 120 116 
3 71 18 82 
3 124 106 142 
3 22 24 144 
3 81 127 44 
3 28 143 32 
3 25 21 102 
3 138 42 134 
3 98 109 76 
3 59 117 60 
3 146 123 87 
3 122 79 11 
3 53 52 120 
3 141 13 12 
3 129 58 108 
3 74 56 129 
3 2 26 137 
3 54 7 139 
3 114 143 34 
3 127 81 23 
3 120 99 53 
3 91 93 92 
3 17 16 126 
3 64 121 118 
3 15 57 95 
3 144 80 125 
3 117 116 5 
3 49 78 147 
3 87 45 145 
3 79 9 11 
3 147 62 49 
3 20 134 21 
3 93 46 18 
3 109 27 76 
3 65 59 67 
3 146 86 107 
3 45 130 145 
3 110 16 71 
3 26 25 30 
3 120 52 3 
3 89 92 96 
3 77 27 136 
3 64 117 65 
3 16 18 71 
3 64 118 117 
3 42 112 134 
3 80 83 47 
3 15 26 2 
3 108 13 128 
3 50 89 48 
3 110 132 16 
3 143 27 109 
3 128 39 108 
3 35 101 103 
3 90 38 37 
3 94 47 46 
3 3 140 4 
3 70 77 111 
3 132 97 126 
3 146 87 145 
3 142 106 140 
3 58 14 1 
3 3 5 116 
3 146 145 86 
3 139 7 6 
3 4 113 60 
3 38 79 39 
3 147 78 55 
3 62 147 55 
